<svg xmlns="http://www.w3.org/2000/svg" version="1.1" xmlns:xlink="http://www.w3.org/1999/xlink" xmlns:svgjs="http://svgjs.dev/svgjs" width="1920" height="1080" preserveAspectRatio="none" viewBox="0 0 1920 1080"><g mask="url(&quot;#SvgjsMask1142&quot;)" fill="none"><rect width="1920" height="1080" x="0" y="0" fill="url(&quot;#SvgjsLinearGradient1143&quot;)"></rect><path d="M1112.1 1262.47C1290.4 1206.68 1275.46 756.47 1597.19 694.02 1918.92 631.57 1938.53 394.03 2082.28 380.82" stroke="rgba(51,121,194,0.58)" stroke-width="2"></path><path d="M110.57 1164.14C371.82 1039.45 368.51 232.67 747.03 196.83 1125.56 160.99 1065.26 331.83 1383.5 331.83 1701.73 331.83 1857.31 197.57 2019.96 196.83" stroke="rgba(51,121,194,0.58)" stroke-width="2"></path><path d="M573.67 1160.21C755.44 1124.81 832.91 666.3 1121.46 661.59 1410.01 656.88 1395.36 796.59 1669.26 796.59 1943.15 796.59 2076.01 662.58 2217.05 661.59" stroke="rgba(51,121,194,0.58)" stroke-width="2"></path><path d="M794.54 1222.82C997.85 1030.76 859.56 200 1204.81 182.02 1550.06 164.04 1796.26 581.19 2025.35 592.42" stroke="rgba(51,121,194,0.58)" stroke-width="2"></path><path d="M1003.96 1221.65C1170.88 1091.2 1073.18 459.02 1358.09 451.82 1643 444.62 1868.38 798.36 2066.35 808.22" stroke="rgba(51,121,194,0.58)" stroke-width="2"></path></g><defs><mask id="SvgjsMask1142"><rect width="1920" height="1080" fill="#ffffff"></rect></mask><linearGradient x1="10.94%" y1="-19.44%" x2="89.06%" y2="119.44%" gradientUnits="userSpaceOnUse" id="SvgjsLinearGradient1143"><stop stop-color="#0e2a47" offset="0"></stop><stop stop-color="rgba(148, 0, 158, 1)" offset="1"></stop></linearGradient></defs></svg>