<svg xmlns="http://www.w3.org/2000/svg" version="1.1" xmlns:xlink="http://www.w3.org/1999/xlink" xmlns:svgjs="http://svgjs.dev/svgjs" width="1920" height="1080" preserveAspectRatio="none" viewBox="0 0 1920 1080"><g mask="url(&quot;#SvgjsMask1370&quot;)" fill="none"><rect width="1920" height="1080" x="0" y="0" fill="url(&quot;#SvgjsLinearGradient1371&quot;)"></rect><path d="M499.79 1252.13C702.59 1192.51 753.53 629.75 1059.82 618.67 1366.12 607.59 1339.84 753.67 1619.86 753.67 1899.87 753.67 2035.87 619.62 2179.89 618.67" stroke="rgba(51, 171, 194, 0.73)" stroke-width="2"></path><path d="M803.51 1166.41C1043.44 1047.11 1056.29 281.28 1381.41 263.74 1706.54 246.2 1796.51 557.19 1959.32 566.14" stroke="rgba(51, 171, 194, 0.73)" stroke-width="2"></path><path d="M242.56 1124.77C482.38 1034.51 511.41 332.36 865.45 310.79 1219.49 289.22 1176.89 445.79 1488.34 445.79 1799.78 445.79 1951.89 311.56 2111.23 310.79" stroke="rgba(51, 171, 194, 0.73)" stroke-width="2"></path><path d="M501.91 1175.51C783.96 1115.81 847.33 423.11 1338.33 381.63 1829.32 340.15 1956.63 135.84 2174.74 133.23" stroke="rgba(51, 171, 194, 0.73)" stroke-width="2"></path><path d="M388.71 1247.3C631.01 1080.27 575.19 257.21 920.96 197.3 1266.74 137.39 1187.09 332.3 1453.22 332.3 1719.34 332.3 1848.2 198.35 1985.47 197.3" stroke="rgba(51, 171, 194, 0.73)" stroke-width="2"></path></g><defs><mask id="SvgjsMask1370"><rect width="1920" height="1080" fill="#ffffff"></rect></mask><linearGradient x1="10.94%" y1="-19.44%" x2="89.06%" y2="119.44%" gradientUnits="userSpaceOnUse" id="SvgjsLinearGradient1371"><stop stop-color="#0e2a47" offset="0"></stop><stop stop-color="rgba(0, 158, 51, 1)" offset="1"></stop></linearGradient></defs></svg>