<svg xmlns="http://www.w3.org/2000/svg" version="1.1" xmlns:xlink="http://www.w3.org/1999/xlink" xmlns:svgjs="http://svgjs.dev/svgjs" width="1920" height="1080" preserveAspectRatio="none" viewBox="0 0 1920 1080"><g mask="url(&quot;#SvgjsMask1077&quot;)" fill="none"><rect width="1920" height="1080" x="0" y="0" fill="rgba(81, 46, 95, 1)"></rect><path d="M0,659.326C122.368,630.117,146.017,459.307,246.71,383.888C336.233,316.835,494.338,348.495,546.846,249.736C598.796,152.026,521.636,35.285,488.129,-70.182C459.727,-159.58,429.469,-248.048,366.588,-317.651C304.555,-386.315,223.186,-431.821,135.286,-460.743C45.182,-490.39,-47.923,-493.032,-142.45,-485.139C-257.418,-475.54,-388.49,-488.371,-473.102,-409.945C-558.689,-330.615,-582.429,-199.424,-576.44,-82.88C-570.942,24.109,-481.167,102.121,-441.668,201.703C-399.244,308.658,-416.02,440.213,-336.115,523.005C-250.418,611.797,-120.03,687.976,0,659.326" fill="#3a2144"></path><path d="M1920 1681.0900000000001C2031.637 1663.271 2130.85 1616.421 2230.849 1563.691 2340.156 1506.0529999999999 2475.5879999999997 1469.493 2530.87 1358.975 2586.415 1247.933 2523.852 1118.247 2515.636 994.36 2506.601 858.117 2566.9049999999997 700.066 2480.18 594.602 2393.583 489.294 2229.754 505.46799999999996 2095.253 483.14300000000003 1976.453 463.424 1854.726 431.054 1741.471 471.98699999999997 1631.039 511.9 1569.038 620.98 1485.517 703.519 1393.8609999999999 794.097 1274.03 860.379 1227.0430000000001 980.3679999999999 1174.499 1114.548 1152.415 1272.132 1211.359 1403.626 1270.402 1535.342 1403.681 1621.637 1538.089 1674.2640000000001 1659.1 1721.645 1791.6680000000001 1701.5729999999999 1920 1681.0900000000001" fill="#693b7b"></path></g><defs><mask id="SvgjsMask1077"><rect width="1920" height="1080" fill="#ffffff"></rect></mask></defs></svg>